<mxfile host="app.diagrams.net" modified="2024-04-07T08:00:29.653Z" agent="Mozilla/5.0 (Windows NT 10.0; Win64; x64; rv:124.0) Gecko/20100101 Firefox/124.0" version="24.2.2" etag="GKWmdO_v4LRkAahCojDu" type="github">
  <diagram name="ページ1" id="KKJ8OoJwU-aAlBByifJy">
    <mxGraphModel>
      <root>
        <mxCell id="0" />
        <mxCell id="1" parent="0" />
      </root>
    </mxGraphModel>
  </diagram>
</mxfile>
